<svg width="20" height="20" viewBox="0 0 20 20" fill="none" xmlns="http://www.w3.org/2000/svg">
<path fill-rule="evenodd" clip-rule="evenodd" d="M3.125 3.75H16.875C17.0407 3.75 17.1997 3.81592 17.3169 3.93311C17.4341 4.05029 17.5 4.20929 17.5 4.375V15.625C17.5 15.7907 17.4341 15.9497 17.3169 16.0669C17.1997 16.1841 17.0407 16.25 16.875 16.25H3.125C2.95929 16.25 2.80029 16.1841 2.68311 16.0669C2.56592 15.9497 2.5 15.7907 2.5 15.625V4.375C2.5 4.20929 2.56592 4.05029 2.68311 3.93311C2.80029 3.81592 2.95929 3.75 3.125 3.75ZM6.15356 10.934C6.46194 11.14 6.82449 11.25 7.19528 11.25C7.44186 11.2511 7.68616 11.2033 7.91412 11.1093C8.14209 11.0155 8.34915 10.8774 8.52341 10.7031C8.69781 10.5289 8.83575 10.3217 8.92975 10.0937C9.02359 9.86588 9.07135 9.62158 9.07028 9.375C9.07028 9.00421 8.96042 8.64166 8.75427 8.33328C8.54828 8.0249 8.25546 7.78458 7.9129 7.64267C7.57019 7.50076 7.1933 7.46368 6.82953 7.53601C6.46576 7.60834 6.13174 7.78702 5.86945 8.04916C5.6073 8.31146 5.42862 8.64548 5.35629 9.00925C5.28397 9.37286 5.3212 9.74991 5.4631 10.0925C5.60501 10.4352 5.84534 10.728 6.15356 10.934Z" fill="black" fill-opacity="0.1"/>
<path d="M11.875 9.375H15C15.3452 9.375 15.625 9.09518 15.625 8.75C15.625 8.40482 15.3452 8.125 15 8.125H11.875C11.5298 8.125 11.25 8.40482 11.25 8.75C11.25 9.09518 11.5298 9.375 11.875 9.375Z" fill="#1C1C1C"/>
<path d="M11.875 11.875H15C15.3452 11.875 15.625 11.5952 15.625 11.25C15.625 10.9048 15.3452 10.625 15 10.625H11.875C11.5298 10.625 11.25 10.9048 11.25 11.25C11.25 11.5952 11.5298 11.875 11.875 11.875Z" fill="#1C1C1C"/>
<path fill-rule="evenodd" clip-rule="evenodd" d="M7.19531 6.875C7.19531 6.875 8.23085 6.875 8.96308 7.60723C8.96308 7.60723 9.69531 8.33947 9.69531 9.375C9.69531 9.375 9.69531 10.4105 8.96308 11.1428C8.96308 11.1428 8.23085 11.875 7.19531 11.875C7.19531 11.875 6.15978 11.875 5.42755 11.1428C5.42755 11.1428 4.69531 10.4105 4.69531 9.375C4.69531 9.375 4.69531 8.33947 5.42755 7.60723C5.42755 7.60723 6.15978 6.875 7.19531 6.875ZM7.19531 8.125C7.19531 8.125 6.67755 8.125 6.31143 8.49112C6.31143 8.49112 5.94531 8.85723 5.94531 9.375C5.94531 9.375 5.94531 9.89277 6.31143 10.2589C6.31143 10.2589 6.67755 10.625 7.19531 10.625C7.19531 10.625 7.71308 10.625 8.0792 10.2589C8.0792 10.2589 8.44531 9.89277 8.44531 9.375C8.44531 9.375 8.44531 8.85723 8.0792 8.49112C8.0792 8.49112 7.71308 8.125 7.19531 8.125Z" fill="#1C1C1C"/>
<path d="M8.34501 12.2639C8.8519 12.6574 9.01141 13.2788 9.01141 13.2788L9.01157 13.2794L9.01172 13.28C9.08253 13.5566 9.33172 13.75 9.61719 13.75L9.62976 13.7499C9.67783 13.7489 9.72563 13.7424 9.77221 13.7305C10.0488 13.6597 10.2422 13.4105 10.2422 13.125L10.2421 13.1124C10.2411 13.0644 10.2346 13.0166 10.2227 12.97C9.95713 11.9329 9.11148 11.2765 9.11148 11.2765C8.26583 10.6201 7.19531 10.6201 7.19531 10.6201C6.1248 10.6201 5.27915 11.2765 5.27915 11.2765C4.4335 11.9329 4.16797 12.97 4.16797 12.97C4.155 13.0206 4.14844 13.0727 4.14844 13.125C4.14844 13.1339 4.14863 13.1428 4.14901 13.1517C4.1534 13.2546 4.18318 13.3549 4.23569 13.4435C4.32016 13.5861 4.45783 13.6894 4.61841 13.7305C4.66907 13.7434 4.72115 13.75 4.77344 13.75C4.78233 13.75 4.79122 13.7498 4.8001 13.7494C4.90304 13.745 5.0033 13.7153 5.09195 13.6628C5.23457 13.5783 5.33779 13.4406 5.37891 13.28C5.53822 12.6578 6.04561 12.2639 6.04561 12.2639C6.55301 11.8701 7.19531 11.8701 7.19531 11.8701C7.83762 11.8701 8.34501 12.2639 8.34501 12.2639Z" fill="#1C1C1C"/>
<path fill-rule="evenodd" clip-rule="evenodd" d="M1.875 4.375C1.875 4.375 1.875 3.85723 2.24112 3.49112C2.24112 3.49112 2.60723 3.125 3.125 3.125H16.875C16.875 3.125 17.3928 3.125 17.7589 3.49112C17.7589 3.49112 18.125 3.85723 18.125 4.375V15.625C18.125 15.625 18.125 16.1428 17.7589 16.5089C17.7589 16.5089 17.3928 16.875 16.875 16.875H3.125C3.125 16.875 2.60723 16.875 2.24112 16.5089C2.24112 16.5089 1.875 16.1428 1.875 15.625V4.375ZM3.125 4.375V15.625H16.875V4.375H3.125Z" fill="#1C1C1C"/>
</svg>
