<svg width="16" height="16" viewBox="0 0 16 16" fill="none" xmlns="http://www.w3.org/2000/svg">
<path fill-rule="evenodd" clip-rule="evenodd" d="M3 6.5C3 6.5 3 5.48308 3.39313 4.55362C3.39313 4.55362 3.77269 3.65624 4.46447 2.96447C4.46447 2.96447 5.15624 2.27269 6.05362 1.89313C6.05362 1.89313 6.98308 1.5 8 1.5C8 1.5 9.01691 1.5 9.94638 1.89313C9.94638 1.89313 10.8438 2.27269 11.5355 2.96447C11.5355 2.96447 12.2273 3.65624 12.6069 4.55362C12.6069 4.55362 13 5.48309 13 6.5V9.5C13 9.5 13 10.5169 12.6069 11.4464C12.6069 11.4464 12.2273 12.3438 11.5355 13.0355C11.5355 13.0355 10.8438 13.7273 9.94638 14.1069C9.94638 14.1069 9.01691 14.5 8 14.5C8 14.5 6.98308 14.5 6.05362 14.1069C6.05362 14.1069 5.15624 13.7273 4.46447 13.0355C4.46447 13.0355 3.77269 12.3438 3.39313 11.4464C3.39313 11.4464 3 10.5169 3 9.5V6.5ZM4 6.5V9.5C4 9.5 4 11.1569 5.17157 12.3284C5.17157 12.3284 6.34315 13.5 8 13.5C8 13.5 9.65685 13.5 10.8284 12.3284C10.8284 12.3284 12 11.1569 12 9.5V6.5C12 6.5 12 4.84315 10.8284 3.67157C10.8284 3.67157 9.65685 2.5 8 2.5C8 2.5 6.34315 2.5 5.17157 3.67157C5.17157 3.67157 4 4.84315 4 6.5Z" fill="#1C1C1C"/>
<path d="M12.5 9H14C14.2761 9 14.5 8.77614 14.5 8.5C14.5 8.22386 14.2761 8 14 8H12.5C12.2239 8 12 8.22386 12 8.5C12 8.77614 12.2239 9 12.5 9Z" fill="#1C1C1C"/>
<path d="M2 9H3.5C3.77614 9 4 8.77614 4 8.5C4 8.22386 3.77614 8 3.5 8H2C1.72386 8 1.5 8.22386 1.5 8.5C1.5 8.77614 1.72386 9 2 9Z" fill="#1C1C1C"/>
<path d="M2 11H3.6125C3.88864 11 4.1125 10.7761 4.1125 10.5C4.1125 10.2239 3.88864 10 3.6125 10H2C1.72386 10 1.5 10.2239 1.5 10.5C1.5 10.7761 1.72386 11 2 11Z" fill="#1C1C1C"/>
<path d="M2 7H14C14.2761 7 14.5 6.77614 14.5 6.5C14.5 6.22386 14.2761 6 14 6H2C1.72386 6 1.5 6.22386 1.5 6.5C1.5 6.77614 1.72386 7 2 7Z" fill="#1C1C1C"/>
<path d="M7.5 8.5V14C7.5 14.2761 7.72386 14.5 8 14.5C8.27614 14.5 8.5 14.2761 8.5 14V8.5C8.5 8.22386 8.27614 8 8 8C7.72386 8 7.5 8.22386 7.5 8.5Z" fill="#1C1C1C"/>
<path d="M12.3875 11H14C14.2762 11 14.5 10.7761 14.5 10.5C14.5 10.2239 14.2762 10 14 10H12.3875C12.1114 10 11.8875 10.2239 11.8875 10.5C11.8875 10.7761 12.1114 11 12.3875 11Z" fill="#1C1C1C"/>
<path d="M3.14945 2.11258L4.63695 3.52508C4.72987 3.61331 4.85311 3.6625 4.98124 3.6625L4.98218 3.6625L4.99417 3.66233C5.12673 3.6589 5.25251 3.60296 5.34382 3.50679C5.43205 3.41388 5.48124 3.29063 5.48124 3.1625L5.48124 3.16156L5.48108 3.14957C5.47765 3.01701 5.4217 2.89124 5.32554 2.79992L3.83804 1.38742C3.74512 1.29919 3.62188 1.25 3.49374 1.25L3.48082 1.25017C3.34825 1.2536 3.22248 1.30954 3.13117 1.40571C3.04294 1.49862 2.99374 1.62187 2.99374 1.75L2.99391 1.76293C2.99734 1.89549 3.05329 2.02126 3.14945 2.11258Z" fill="#1C1C1C"/>
<path d="M12.1495 1.38739L10.6683 2.79364C10.5721 2.88494 10.5161 3.0107 10.5127 3.14327L10.5125 3.15625L10.5126 3.16729C10.5154 3.29156 10.5643 3.41036 10.6499 3.5005C10.7412 3.59668 10.867 3.65264 10.9995 3.65608L11.0125 3.65625L11.0236 3.65613C11.1478 3.65338 11.2666 3.60445 11.3568 3.51886L12.838 2.11261C12.9342 2.02131 12.9902 1.89555 12.9936 1.76298L12.9938 1.75L12.9936 1.73896C12.9909 1.61469 12.942 1.49589 12.8564 1.40575C12.7651 1.30957 12.6393 1.25361 12.5067 1.25017L12.4938 1.25L12.4827 1.25012C12.3584 1.25287 12.2397 1.3018 12.1495 1.38739Z" fill="#1C1C1C"/>
</svg>
