<svg width="16" height="16" viewBox="0 0 16 16" fill="none" xmlns="http://www.w3.org/2000/svg">
<path fill-rule="evenodd" clip-rule="evenodd" d="M8 1.5C8 1.5 8.91519 1.5 9.75176 1.85384C9.75176 1.85384 10.5594 2.19544 11.182 2.81802C11.182 2.81802 11.8046 3.4406 12.1462 4.24824C12.1462 4.24824 12.5 5.08481 12.5 6C12.5 6 12.5 6.91519 12.1462 7.75176C12.1462 7.75176 11.8046 8.55941 11.182 9.18198C11.182 9.18198 10.5594 9.80456 9.75176 10.1462C9.75176 10.1462 8.91519 10.5 8 10.5C8 10.5 7.08481 10.5 6.24824 10.1462C6.24824 10.1462 5.4406 9.80456 4.81802 9.18198C4.81802 9.18198 4.19545 8.55941 3.85384 7.75176C3.85384 7.75176 3.5 6.91519 3.5 6C3.5 6 3.5 5.08481 3.85384 4.24824C3.85384 4.24824 4.19544 3.44059 4.81802 2.81802C4.81802 2.81802 5.4406 2.19544 6.24824 1.85384C6.24824 1.85384 7.08481 1.5 8 1.5ZM8 2.5C8 2.5 6.55025 2.5 5.52513 3.52513C5.52513 3.52513 4.5 4.55025 4.5 6C4.5 6 4.5 7.44975 5.52513 8.47487C5.52513 8.47487 6.55025 9.5 8 9.5C8 9.5 9.44975 9.5 10.4749 8.47487C10.4749 8.47487 11.5 7.44975 11.5 6C11.5 6 11.5 4.55025 10.4749 3.52513C10.4749 3.52513 9.44975 2.5 8 2.5Z" fill="#1C1C1C"/>
<path d="M11.2503 11.3704C12.7587 12.2414 13.6295 13.75 13.6295 13.75C13.6958 13.8648 13.805 13.9486 13.933 13.983C13.9753 13.9943 14.0188 14 14.0625 14C14.0677 14 14.073 13.9999 14.0782 13.9998C14.1606 13.9972 14.2411 13.9743 14.3125 13.933C14.4672 13.8437 14.5625 13.6787 14.5625 13.5C14.5625 13.4923 14.5623 13.4846 14.562 13.4769C14.5583 13.397 14.5355 13.3193 14.4955 13.25C13.4908 11.5094 11.7503 10.5044 11.7503 10.5044C10.0098 9.49945 8 9.49945 8 9.49945C5.9902 9.49945 4.2497 10.5044 4.2497 10.5044C2.50934 11.5093 1.50462 13.2498 1.50462 13.2498C1.46075 13.3258 1.4375 13.4123 1.4375 13.5L1.43758 13.5091C1.43832 13.5497 1.44402 13.5902 1.45455 13.6295C1.48888 13.7576 1.57269 13.8668 1.68754 13.933C1.76354 13.9769 1.84975 14 1.9375 14C1.94675 14 1.95601 13.9998 1.96525 13.9992C2.13375 13.9899 2.28617 13.8961 2.37054 13.75C3.24131 12.2414 4.74974 11.3704 4.74974 11.3704C6.25817 10.4995 8 10.4995 8 10.4995C9.74183 10.4995 11.2503 11.3704 11.2503 11.3704Z" fill="#1C1C1C"/>
</svg>
