<svg width="40" height="10" viewBox="0 0 40 10" fill="none" xmlns="http://www.w3.org/2000/svg">
<path d="M15.3448 9.61538V4.23077C15.3448 2.95626 14.3413 1.92307 13.1034 1.92307C11.8656 1.92307 10.8621 2.95626 10.8621 4.23077V9.61538H9.3678V4.23077C9.3678 2.1066 11.0403 0.384613 13.1034 0.384613C15.1666 0.384613 16.8391 2.1066 16.8391 4.23077V9.61538H15.3448Z" fill="#1C1C1C"/>
<path fill-rule="evenodd" clip-rule="evenodd" d="M23.5632 8.07692C25.2137 8.07692 26.5517 6.69934 26.5517 5C26.5517 3.30066 25.2137 1.92307 23.5632 1.92307C21.9127 1.92307 20.5747 3.30066 20.5747 5C20.5747 6.69934 21.9127 8.07692 23.5632 8.07692ZM23.5632 9.61538C26.039 9.61538 28.046 7.549 28.046 5C28.046 2.45099 26.039 0.384613 23.5632 0.384613C21.0874 0.384613 19.0804 2.45099 19.0804 5C19.0804 7.549 21.0874 9.61538 23.5632 9.61538Z" fill="#95A4FC"/>
<path d="M29.5402 0.384613L30.9485 8.34735C31.2406 9.99908 33.3827 10.0526 33.7434 8.4172L34.5782 3.87832C34.6089 3.71158 34.8259 3.71498 34.8523 3.88262L35.5547 8.34977C35.8665 9.99889 38.0119 10.0201 38.3508 8.37741L40 0.384613H38.5497L37.0986 8.04646C37.0674 8.21118 36.8535 8.20901 36.825 8.04369L35.507 0.384613H34.0471L32.5035 8.069C32.4706 8.23314 32.257 8.22833 32.2301 8.06283L30.9837 0.384613H29.5402Z" fill="#1C1C1C"/>
<path d="M3.68662 9.61538C4.73605 9.61538 5.57171 9.39024 6.19359 8.9212C6.81548 8.45216 7.12642 7.81426 7.12642 6.96998C7.12642 6.23827 6.87378 5.69418 6.38793 5.30019C5.88265 4.90619 5.2219 4.56848 4.38624 4.26829C3.82265 4.04315 3.33681 3.83677 2.96756 3.64915C2.59832 3.46154 2.40398 3.18011 2.40398 2.80488C2.40398 2.46716 2.54001 2.2045 2.83152 2.03565C3.12303 1.86679 3.51171 1.79174 3.99756 1.79174C4.3668 1.79174 4.73605 1.84803 5.08586 1.9606C5.41624 2.07317 5.76605 2.22326 6.13529 2.42964L6.73774 1.15384C6.32963 0.891179 5.88265 0.703562 5.41624 0.57223C4.94982 0.440898 4.48341 0.384613 3.99756 0.384613C3.02586 0.384613 2.24851 0.590992 1.64605 1.02251C1.0436 1.45403 0.752093 2.05441 0.771527 2.82364C0.790961 3.53658 1.0436 4.08067 1.54888 4.45591C2.03473 4.83114 2.69549 5.16885 3.53115 5.46904C4.09473 5.67542 4.56114 5.8818 4.93039 6.08818C5.29963 6.29456 5.47454 6.61351 5.47454 7.02626C5.47454 7.4015 5.31907 7.68293 5.00812 7.8893C4.67775 8.09568 4.23077 8.18949 3.62831 8.18949C3.2202 8.18949 2.79266 8.11445 2.36511 7.98311C1.93756 7.85178 1.49058 7.6454 1.00473 7.32645L0.402283 8.65854C0.888131 8.95872 1.41285 9.18386 1.93756 9.35272C2.46228 9.52157 3.0453 9.61538 3.68662 9.61538Z" fill="#1C1C1C"/>
</svg>
