<svg width="25" height="23" viewBox="0 0 25 23" fill="none" xmlns="http://www.w3.org/2000/svg">
<path d="M5.16488 0.559999C6.72221 0.559999 7.95954 1.09333 8.87688 2.16C9.79421 3.20533 10.2529 4.61333 10.2529 6.384C10.2529 8.13333 9.79421 9.54133 8.87688 10.608C7.95954 11.6747 6.72221 12.208 5.16488 12.208C3.60754 12.208 2.37021 11.6747 1.45288 10.608C0.535542 9.54133 0.0768751 8.13333 0.0768751 6.384C0.0768751 4.61333 0.535542 3.20533 1.45288 2.16C2.37021 1.09333 3.60754 0.559999 5.16488 0.559999ZM4.55688 22L17.9969 0.879999H20.4289L6.98888 22H4.55688ZM5.16488 2.576C4.24754 2.576 3.54354 2.91733 3.05288 3.6C2.58354 4.26133 2.34888 5.18933 2.34888 6.384C2.34888 7.57867 2.58354 8.51733 3.05288 9.2C3.54354 9.86133 4.24754 10.192 5.16488 10.192C6.08221 10.192 6.77554 9.86133 7.24487 9.2C7.73554 8.51733 7.98088 7.57867 7.98088 6.384C7.98088 5.18933 7.73554 4.26133 7.24487 3.6C6.77554 2.91733 6.08221 2.576 5.16488 2.576ZM19.8209 10.672C21.3782 10.672 22.6155 11.2053 23.5329 12.272C24.4502 13.3173 24.9089 14.7253 24.9089 16.496C24.9089 18.2453 24.4502 19.6533 23.5329 20.72C22.6155 21.7867 21.3782 22.32 19.8209 22.32C18.2635 22.32 17.0262 21.7867 16.1089 20.72C15.1915 19.6533 14.7329 18.2453 14.7329 16.496C14.7329 14.7253 15.1915 13.3173 16.1089 12.272C17.0262 11.2053 18.2635 10.672 19.8209 10.672ZM19.8209 12.688C18.9035 12.688 18.1995 13.0293 17.7089 13.712C17.2395 14.3733 17.0049 15.3013 17.0049 16.496C17.0049 17.6907 17.2395 18.6293 17.7089 19.312C18.1995 19.9733 18.9035 20.304 19.8209 20.304C20.7382 20.304 21.4315 19.9733 21.9009 19.312C22.3915 18.6293 22.6369 17.6907 22.6369 16.496C22.6369 15.3013 22.3915 14.3733 21.9009 13.712C21.4315 13.0293 20.7382 12.688 19.8209 12.688Z" fill="white"/>
</svg>
