<svg width="20" height="20" viewBox="0 0 20 20" fill="none" xmlns="http://www.w3.org/2000/svg">
<path d="M4.39062 8.12498C4.38956 7.38406 4.53513 6.65018 4.81894 5.96575C5.10275 5.28128 5.51917 4.65975 6.04407 4.13691C6.56912 3.61407 7.19244 3.20025 7.87802 2.9193C8.56375 2.63838 9.29816 2.49586 10.0391 2.49998C13.1328 2.52345 15.6093 5.09375 15.6093 8.19529V8.74998C15.6093 11.5469 16.1953 13.1719 16.7109 14.0625C16.7657 14.1574 16.7946 14.2649 16.7946 14.3745C16.7948 14.484 16.7661 14.5916 16.7115 14.6865C16.6569 14.7815 16.5783 14.8604 16.4837 14.9155C16.3889 14.9705 16.2813 14.9996 16.1719 15H3.82819C3.71863 14.9996 3.61105 14.9705 3.51645 14.9155C3.42169 14.8604 3.34311 14.7815 3.28848 14.6865C3.23386 14.5916 3.20517 14.484 3.20532 14.3745C3.20547 14.2649 3.23431 14.1574 3.28909 14.0625C3.80469 13.1719 4.39062 11.5469 4.39062 8.74998V8.12498Z" fill="black" fill-opacity="0.1"/>
<path fill-rule="evenodd" clip-rule="evenodd" d="M3.76562 8.74997V8.12497C3.76562 8.12497 3.76387 6.87855 4.24158 5.72635C4.24158 5.72635 4.71929 4.57416 5.6031 3.69401C5.6031 3.69401 6.48691 2.81387 7.64108 2.34096C7.64108 2.34096 8.79525 1.86804 10.0425 1.87498C10.0425 1.87498 11.3108 1.88459 12.4657 2.39125C12.4657 2.39125 13.5768 2.87872 14.4322 3.75736C14.4322 3.75736 15.2842 4.63257 15.7515 5.76112C15.7515 5.76112 16.2344 6.92726 16.2344 8.19529V8.74997C16.2344 8.74997 16.2344 11.9919 17.2518 13.7493C17.2518 13.7493 17.4194 14.0395 17.4197 14.3739C17.4197 14.3739 17.42 14.7082 17.2533 14.9981C17.2533 14.9981 17.0866 15.2879 16.7975 15.4559C16.7975 15.4559 16.5084 15.6238 16.1741 15.625L3.82812 15.625C3.82812 15.625 3.49157 15.6238 3.20246 15.4559C3.20246 15.4559 2.91335 15.2879 2.74669 14.9981C2.74669 14.9981 2.58003 14.7082 2.58032 14.3739C2.58032 14.3739 2.58062 14.0395 2.7478 13.75C2.7478 13.75 3.76562 11.9919 3.76562 8.74997ZM5.01562 8.74997C5.01562 8.74997 5.01562 12.3276 3.83032 14.375L16.1697 14.375C16.1697 14.375 14.9844 12.3271 14.9844 8.74997V8.19529C14.9844 8.19529 14.9844 6.1165 13.5365 4.62931C13.5365 4.62931 12.0871 3.14051 10.0356 3.12496C10.0356 3.12496 9.03807 3.11941 8.11502 3.49763C8.11502 3.49763 7.19197 3.87584 6.48514 4.57973C6.48514 4.57973 5.77831 5.28363 5.39627 6.2051C5.39627 6.2051 5.01422 7.12657 5.01562 8.12497V8.74997Z" fill="#1C1C1C"/>
<path d="M13.125 15.625V15C13.125 14.6548 12.8452 14.375 12.5 14.375C12.1548 14.375 11.875 14.6548 11.875 15V15.625C11.875 16.4016 11.3258 16.9508 11.3258 16.9508C10.7766 17.5 10 17.5 10 17.5C9.22335 17.5 8.67417 16.9508 8.67417 16.9508C8.125 16.4016 8.125 15.625 8.125 15.625V15C8.125 14.6548 7.84518 14.375 7.5 14.375C7.15482 14.375 6.875 14.6548 6.875 15L6.875 15.625C6.875 16.9194 7.79029 17.8347 7.79029 17.8347C8.70558 18.75 10 18.75 10 18.75C11.2944 18.75 12.2097 17.8347 12.2097 17.8347C13.125 16.9194 13.125 15.625 13.125 15.625Z" fill="#1C1C1C"/>
</svg>
