<svg width="16" height="16" viewBox="0 0 16 16" fill="none" xmlns="http://www.w3.org/2000/svg">
<path fill-rule="evenodd" clip-rule="evenodd" d="M8 5.5C8 5.5 9.03553 5.5 9.76777 6.23223C9.76777 6.23223 10.5 6.96447 10.5 8C10.5 8 10.5 9.03553 9.76777 9.76777C9.76777 9.76777 9.03553 10.5 8 10.5C8 10.5 6.96447 10.5 6.23223 9.76777C6.23223 9.76777 5.5 9.03553 5.5 8C5.5 8 5.5 6.96447 6.23223 6.23223C6.23223 6.23223 6.96447 5.5 8 5.5ZM8 6.5C8 6.5 7.37868 6.5 6.93934 6.93934C6.93934 6.93934 6.5 7.37868 6.5 8C6.5 8 6.5 8.62132 6.93934 9.06066C6.93934 9.06066 7.37868 9.5 8 9.5C8 9.5 8.62132 9.5 9.06066 9.06066C9.06066 9.06066 9.5 8.62132 9.5 8C9.5 8 9.5 7.37868 9.06066 6.93934C9.06066 6.93934 8.62132 6.5 8 6.5Z" fill="#1C1C1C"/>
<path d="M5.1721 5.17247C5.26587 5.07871 5.31875 4.95133 5.31875 4.81873C5.31875 4.68621 5.26614 4.55912 5.1725 4.46537C5.07873 4.3716 4.95135 4.31873 4.81875 4.31873C4.68623 4.31873 4.55914 4.37133 4.46539 4.46498C3.77412 5.15549 3.39535 6.05614 3.39535 6.05614C2.99988 6.98687 2.99988 7.99998 2.99988 7.99998C2.99988 9.01308 3.39606 9.94551 3.39606 9.94551C3.77412 10.8445 4.46539 11.535 4.46539 11.535C4.55914 11.6286 4.68623 11.6812 4.81875 11.6812C4.95135 11.6812 5.07878 11.6284 5.17249 11.5346C5.26614 11.4408 5.31875 11.3137 5.31875 11.1812C5.31867 11.0486 5.26592 10.9212 5.1721 10.8275C4.61978 10.2758 4.31643 9.55444 4.31643 9.55444C3.99988 8.80944 3.99988 7.99998 3.99988 7.99998C3.99988 7.19051 4.31715 6.44381 4.31715 6.44381C4.61978 5.72419 5.1721 5.17247 5.1721 5.17247Z" fill="#1C1C1C"/>
<path d="M11.5348 4.46517C12.2259 5.15561 12.6039 6.05444 12.6039 6.05444C13.0001 6.98687 13.0001 7.99998 13.0001 7.99998C13.0001 9.01308 12.6046 9.94381 12.6046 9.94381C12.2259 10.8445 11.5346 11.535 11.5346 11.535C11.4471 11.6224 11.3303 11.6742 11.2068 11.6806C11.1983 11.681 11.1898 11.6812 11.1812 11.6812C11.0485 11.6812 10.9213 11.6285 10.8275 11.5346C10.7396 11.4466 10.6877 11.3291 10.6818 11.205C10.6814 11.1971 10.6812 11.1891 10.6812 11.1812C10.6813 11.0486 10.7341 10.9212 10.8279 10.8275C11.3802 10.2758 11.6828 9.55614 11.6828 9.55614C12.0001 8.80944 12.0001 7.99998 12.0001 7.99998C12.0001 7.19051 11.6836 6.44551 11.6836 6.44551C11.3802 5.72419 10.8279 5.17247 10.8279 5.17247C10.734 5.07869 10.6812 4.95143 10.6812 4.81873C10.6812 4.68724 10.733 4.56104 10.8254 4.46747L10.8275 4.46537C10.9103 4.38246 11.0196 4.33128 11.1363 4.32075C11.1512 4.31941 11.1661 4.31873 11.181 4.31873C11.3113 4.31873 11.4368 4.36964 11.5302 4.46063L11.5348 4.46517Z" fill="#1C1C1C"/>
<path d="M3.40354 3.4036L3.40582 3.40131C3.49819 3.30773 3.54999 3.18154 3.54999 3.05005C3.54999 2.91728 3.49718 2.78997 3.40322 2.69617L3.39893 2.69195C3.30557 2.60097 3.18035 2.55005 3.04999 2.55005C3.03514 2.55006 3.01985 2.55074 3.00506 2.55207C2.88829 2.56261 2.77894 2.61384 2.69611 2.69682C1.66241 3.73252 1.08982 5.07948 1.08982 5.07948C0.499939 6.48111 0.499939 8.00005 0.499939 8.00005C0.499939 9.51899 1.08914 10.919 1.08914 10.919C1.66223 12.2675 2.69611 13.3033 2.69611 13.3033C2.78979 13.3971 2.91692 13.4499 3.04953 13.45C3.05738 13.45 3.0657 13.4499 3.07355 13.4495C3.19771 13.4436 3.31524 13.3917 3.40322 13.3039C3.49718 13.2101 3.54999 13.0828 3.54999 12.9501C3.54999 12.9416 3.54977 12.9331 3.54934 12.9246C3.54306 12.8011 3.49123 12.6843 3.40387 12.5968C2.50681 11.6981 2.01084 10.5311 2.01084 10.5311C1.49994 9.31714 1.49994 8.00005 1.49994 8.00005C1.49994 6.68296 2.01015 5.47062 2.01015 5.47062C2.50672 4.30219 3.40354 3.4036 3.40354 3.4036Z" fill="#1C1C1C"/>
<path d="M13.3042 2.69713L13.3036 2.6965C13.2099 2.60284 13.0829 2.55017 12.9505 2.55005C12.818 2.55005 12.6905 2.6026 12.5968 2.69617C12.503 2.78994 12.45 2.91744 12.45 3.05005C12.45 3.1825 12.5026 3.30954 12.5961 3.40328C13.4932 4.30198 13.9892 5.469 13.9892 5.469C14.5001 6.68296 14.5001 8.00005 14.5001 8.00005C14.5001 9.31714 13.9898 10.5295 13.9898 10.5295C13.4932 11.6981 12.5961 12.5968 12.5961 12.5968C12.5026 12.6906 12.45 12.8176 12.45 12.95C12.4501 13.0827 12.5029 13.2102 12.5968 13.3039C12.6905 13.3975 12.8176 13.45 12.95 13.45C13.0826 13.4499 13.2102 13.3971 13.3039 13.3033C14.3378 12.2675 14.9102 10.9206 14.9102 10.9206C15.5001 9.51899 15.5001 8.00005 15.5001 8.00005C15.5001 6.48111 14.9109 5.0811 14.9109 5.0811C14.3379 3.7328 13.3042 2.69713 13.3042 2.69713Z" fill="#1C1C1C"/>
</svg>
