<svg width="18" height="18" viewBox="0 0 18 18" fill="none" xmlns="http://www.w3.org/2000/svg">
<path fill-rule="evenodd" clip-rule="evenodd" d="M5.03239 3.23186C3.2001 4.49474 2 6.60797 2 8.99992C2 12.8659 5.13401 15.9999 9 15.9999C11.3918 15.9999 13.5049 14.8 14.7679 12.9678C14.5146 12.9893 14.2585 13.0002 14 13.0002C9.02944 13.0002 5 8.97075 5 4.00019C5 3.7415 5.01094 3.48524 5.03239 3.23186ZM0 8.99992C0 5.04173 2.55459 1.68279 6.10211 0.476929L7.37072 1.74561C7.13064 2.45177 7 3.20969 7 4.00019C7 7.86618 10.134 11.0002 14 11.0002C14.7904 11.0002 15.5482 10.8696 16.2542 10.6296L17.5228 11.8983C16.3168 15.4456 12.958 17.9999 9 17.9999C4.02944 17.9999 0 13.9705 0 8.99992Z" fill="#4B5EFC"/>
</svg>
