<svg width="20" height="20" viewBox="0 0 20 20" fill="none" xmlns="http://www.w3.org/2000/svg">
<path d="M17.5 4.375H12.5C11.837 4.375 11.2011 4.63837 10.7322 5.10727C10.2634 5.57602 10 6.21201 10 6.875C10 6.21201 9.7366 5.57602 9.26777 5.10727C8.79894 4.63837 8.16303 4.375 7.5 4.375H2.5C2.33425 4.375 2.17525 4.44092 2.05807 4.55811C1.94084 4.67529 1.875 4.83429 1.875 5V15C1.875 15.1657 1.94084 15.3247 2.05807 15.4419C2.17525 15.5591 2.33425 15.625 2.5 15.625H7.5C8.16303 15.625 8.79894 15.8884 9.26777 16.3573C9.7366 16.826 10 17.462 10 18.125C10 17.462 10.2634 16.826 10.7322 16.3573C11.2011 15.8884 11.837 15.625 12.5 15.625H17.5C17.6657 15.625 17.8247 15.5591 17.9419 15.4419C18.0592 15.3247 18.125 15.1657 18.125 15V5C18.125 4.83429 18.0592 4.67529 17.9419 4.55811C17.8247 4.44092 17.6657 4.375 17.5 4.375Z" fill="black" fill-opacity="0.1"/>
<path d="M10.2903 15.9153C9.375 16.8306 9.375 18.125 9.375 18.125C9.375 18.4702 9.65482 18.75 10 18.75C10.3452 18.75 10.625 18.4702 10.625 18.125C10.625 17.3483 11.1742 16.7992 11.1742 16.7992C11.7234 16.25 12.5 16.25 12.5 16.25H17.5C18.0178 16.25 18.3839 15.8839 18.3839 15.8839C18.75 15.5178 18.75 15 18.75 15V5C18.75 4.48223 18.3839 4.11612 18.3839 4.11612C18.0178 3.75 17.5 3.75 17.5 3.75H12.5C11.2056 3.75 10.2903 4.66529 10.2903 4.66529C9.375 5.58058 9.375 6.875 9.375 6.875C9.375 7.22018 9.65482 7.5 10 7.5C10.1658 7.5 10.3247 7.43415 10.4419 7.31694C10.5592 7.19973 10.625 7.04076 10.625 6.875C10.625 6.09835 11.1742 5.54917 11.1742 5.54917C11.7233 5 12.5 5 12.5 5H17.5V15H12.5C11.2056 15 10.2903 15.9153 10.2903 15.9153Z" fill="#1C1C1C"/>
<path fill-rule="evenodd" clip-rule="evenodd" d="M1.25 5C1.25 5 1.25 4.48223 1.61612 4.11612C1.61612 4.11612 1.98223 3.75 2.5 3.75H7.5C7.5 3.75 8.79442 3.75 9.70971 4.66529C9.70971 4.66529 10.625 5.58058 10.625 6.875V18.125C10.625 18.4702 10.3452 18.75 10 18.75C9.65482 18.75 9.375 18.4702 9.375 18.125C9.375 18.125 9.375 17.3483 8.82583 16.7992C8.82583 16.7992 8.27665 16.25 7.5 16.25H2.5C2.5 16.25 1.98223 16.25 1.61612 15.8839C1.61612 15.8839 1.25 15.5178 1.25 15V5ZM9.375 6.875V15.6209C9.375 15.6209 8.56608 15 7.5 15H2.5V5H7.5C7.5 5 8.27665 5 8.82583 5.54917C8.82583 5.54917 9.375 6.09835 9.375 6.875Z" fill="#1C1C1C"/>
</svg>
