<svg width="160" height="28" viewBox="0 0 160 28" fill="none" xmlns="http://www.w3.org/2000/svg">
<rect width="160" height="28" rx="8" fill="black" fill-opacity="0.05"/>
<path d="M20.35 20.3563C20.2567 20.4482 20.131 20.4998 20 20.5C19.8672 20.4994 19.7397 20.448 19.6438 20.3563L16.9438 17.65C15.8066 18.6051 14.3447 19.0844 12.8628 18.9878C11.3809 18.8912 9.99346 18.2263 8.98991 17.1316C7.98636 16.037 7.44415 14.5972 7.47636 13.1125C7.50858 11.6278 8.11272 10.2129 9.1628 9.16281C10.2129 8.11272 11.6278 7.50858 13.1125 7.47636C14.5972 7.44415 16.037 7.98636 17.1316 8.98991C18.2263 9.99346 18.8912 11.3809 18.9878 12.8628C19.0844 14.3447 18.6051 15.8066 17.65 16.9438L20.35 19.6438C20.3972 19.6903 20.4348 19.7457 20.4604 19.8069C20.486 19.8681 20.4992 19.9337 20.4992 20C20.4992 20.0663 20.486 20.132 20.4604 20.1931C20.4348 20.2543 20.3972 20.3097 20.35 20.3563ZM13.25 18C14.1895 18 15.1078 17.7214 15.889 17.1995C16.6701 16.6776 17.2789 15.9357 17.6384 15.0678C17.9979 14.1998 18.092 13.2447 17.9087 12.3233C17.7255 11.4019 17.2731 10.5555 16.6088 9.89125C15.9445 9.22695 15.0981 8.77456 14.1767 8.59128C13.2553 8.408 12.3002 8.50206 11.4323 8.86158C10.5643 9.22109 9.82246 9.82991 9.30052 10.611C8.77859 11.3922 8.50001 12.3105 8.50001 13.25C8.50166 14.5093 9.00263 15.7165 9.89307 16.6069C10.7835 17.4974 11.9907 17.9984 13.25 18Z" fill="black" fill-opacity="0.2"/>
<path d="M32.8011 11.3636C32.7415 10.8598 32.4995 10.4688 32.0753 10.1903C31.651 9.91193 31.1307 9.77273 30.5142 9.77273C30.0634 9.77273 29.669 9.84564 29.331 9.99148C28.9962 10.1373 28.7344 10.3378 28.5455 10.593C28.3598 10.8482 28.267 11.1383 28.267 11.4631C28.267 11.7348 28.3317 11.9685 28.4609 12.1641C28.5935 12.3563 28.7625 12.517 28.968 12.6463C29.1735 12.7723 29.389 12.8767 29.6143 12.9595C29.8397 13.0391 30.0469 13.1037 30.2358 13.1534L31.2699 13.4318C31.535 13.5014 31.83 13.5975 32.1548 13.7202C32.483 13.8428 32.7962 14.0102 33.0945 14.2223C33.3961 14.4311 33.6446 14.6996 33.8402 15.0277C34.0357 15.3558 34.1335 15.7585 34.1335 16.2358C34.1335 16.786 33.9893 17.2831 33.701 17.7273C33.416 18.1714 32.9983 18.5244 32.4482 18.7862C31.9013 19.0481 31.2367 19.179 30.4545 19.179C29.7254 19.179 29.094 19.0613 28.5604 18.826C28.0301 18.5907 27.6125 18.2625 27.3075 17.8416C27.0059 17.4207 26.8352 16.9318 26.7955 16.375H28.0682C28.1013 16.7595 28.2306 17.0777 28.456 17.3295C28.6847 17.5781 28.973 17.7637 29.321 17.8864C29.6723 18.0057 30.0502 18.0653 30.4545 18.0653C30.9252 18.0653 31.3478 17.9891 31.7223 17.8366C32.0968 17.6809 32.3935 17.4654 32.6122 17.1903C32.831 16.9119 32.9403 16.5871 32.9403 16.2159C32.9403 15.8778 32.8459 15.6027 32.657 15.3906C32.468 15.1785 32.2195 15.0062 31.9112 14.8736C31.603 14.741 31.2699 14.625 30.9119 14.5256L29.6591 14.1676C28.8636 13.9389 28.2339 13.6125 27.7699 13.1882C27.3059 12.764 27.0739 12.2088 27.0739 11.5227C27.0739 10.9527 27.228 10.4555 27.5362 10.0312C27.8478 9.60369 28.2654 9.27225 28.7891 9.03693C29.3161 8.7983 29.9044 8.67898 30.554 8.67898C31.2102 8.67898 31.7936 8.79664 32.304 9.03196C32.8144 9.26397 33.2188 9.58215 33.517 9.98651C33.8187 10.3909 33.9777 10.8499 33.9943 11.3636H32.8011ZM39.2033 19.1591C38.4675 19.1591 37.8328 18.9967 37.2992 18.6719C36.7689 18.3438 36.3596 17.8864 36.0712 17.2997C35.7862 16.7098 35.6436 16.0237 35.6436 15.2415C35.6436 14.4593 35.7862 13.7699 36.0712 13.1733C36.3596 12.5734 36.7606 12.1061 37.2743 11.7713C37.7914 11.4332 38.3946 11.2642 39.084 11.2642C39.4817 11.2642 39.8745 11.3305 40.2623 11.4631C40.65 11.5956 41.003 11.8111 41.3212 12.1094C41.6394 12.4044 41.8929 12.7955 42.0819 13.2827C42.2708 13.7699 42.3652 14.3698 42.3652 15.0824V15.5795H36.4789V14.5653H41.1721C41.1721 14.1345 41.0859 13.75 40.9135 13.4119C40.7445 13.0739 40.5025 12.8071 40.1877 12.6115C39.8761 12.416 39.5082 12.3182 39.084 12.3182C38.6167 12.3182 38.2123 12.4342 37.8709 12.6662C37.5328 12.8949 37.2727 13.1932 37.0904 13.5611C36.9081 13.929 36.8169 14.3234 36.8169 14.7443V15.4205C36.8169 15.9972 36.9164 16.486 37.1152 16.8871C37.3174 17.2848 37.5975 17.5881 37.9554 17.7969C38.3134 18.0024 38.7293 18.1051 39.2033 18.1051C39.5115 18.1051 39.79 18.062 40.0385 17.9759C40.2904 17.8864 40.5075 17.7538 40.6898 17.5781C40.8721 17.3991 41.013 17.1771 41.1124 16.9119L42.2459 17.2301C42.1266 17.6146 41.9261 17.9527 41.6444 18.2443C41.3626 18.5327 41.0146 18.758 40.6003 18.9205C40.186 19.0795 39.7203 19.1591 39.2033 19.1591ZM46.3972 19.179C45.9133 19.179 45.4741 19.0878 45.0797 18.9055C44.6853 18.7199 44.3721 18.4531 44.1401 18.1051C43.9081 17.7538 43.7921 17.3295 43.7921 16.8324C43.7921 16.3949 43.8783 16.0402 44.0506 15.7685C44.223 15.4934 44.4533 15.2779 44.7417 15.1222C45.03 14.9664 45.3482 14.8504 45.6962 14.7741C46.0475 14.6946 46.4005 14.6316 46.7551 14.5852C47.2192 14.5256 47.5953 14.4808 47.8837 14.451C48.1754 14.4179 48.3875 14.3632 48.5201 14.2869C48.656 14.2107 48.7239 14.0781 48.7239 13.8892V13.8494C48.7239 13.3589 48.5897 12.9777 48.3212 12.706C48.056 12.4342 47.6534 12.2983 47.1131 12.2983C46.553 12.2983 46.1138 12.4209 45.7956 12.6662C45.4775 12.9115 45.2537 13.1733 45.1245 13.4517L44.0108 13.054C44.2097 12.59 44.4748 12.2287 44.8063 11.9702C45.141 11.7083 45.5056 11.526 45.9 11.4233C46.2978 11.3172 46.6889 11.2642 47.0733 11.2642C47.3186 11.2642 47.6003 11.294 47.9185 11.3537C48.24 11.41 48.5499 11.5277 48.8482 11.7067C49.1498 11.8857 49.4 12.1558 49.5989 12.517C49.7978 12.8783 49.8972 13.3622 49.8972 13.9688V19H48.7239V17.9659H48.6642C48.5847 18.1316 48.4521 18.3089 48.2665 18.4979C48.0809 18.6868 47.834 18.8475 47.5257 18.9801C47.2175 19.1127 46.8413 19.179 46.3972 19.179ZM46.5762 18.125C47.0402 18.125 47.4313 18.0339 47.7495 17.8516C48.071 17.6693 48.3129 17.4339 48.4753 17.1456C48.641 16.8572 48.7239 16.554 48.7239 16.2358V15.1619C48.6742 15.2216 48.5648 15.2763 48.3958 15.326C48.2301 15.3724 48.0378 15.4138 47.8191 15.4503C47.6036 15.4834 47.3932 15.5133 47.1877 15.5398C46.9855 15.563 46.8214 15.5829 46.6955 15.5994C46.3906 15.6392 46.1055 15.7038 45.8404 15.7933C45.5785 15.8795 45.3664 16.0104 45.204 16.1861C45.0449 16.3584 44.9654 16.5937 44.9654 16.892C44.9654 17.2997 45.1162 17.608 45.4178 17.8168C45.7227 18.0223 46.1088 18.125 46.5762 18.125ZM52.0387 19V11.3636H53.1722V12.517H53.2518C53.391 12.1392 53.6429 11.8326 54.0075 11.5973C54.372 11.362 54.783 11.2443 55.2404 11.2443C55.3266 11.2443 55.4343 11.246 55.5636 11.2493C55.6928 11.2526 55.7906 11.2576 55.8569 11.2642V12.4574C55.8171 12.4474 55.726 12.4325 55.5835 12.4126C55.4442 12.3894 55.2968 12.3778 55.141 12.3778C54.7698 12.3778 54.4383 12.4557 54.1467 12.6115C53.8583 12.764 53.6296 12.9761 53.4606 13.2479C53.2949 13.5163 53.212 13.8229 53.212 14.1676V19H52.0387ZM60.1175 19.1591C59.4016 19.1591 58.7852 18.9901 58.2681 18.652C57.7511 18.3139 57.3533 17.8482 57.0749 17.255C56.7965 16.6617 56.6573 15.9839 56.6573 15.2216C56.6573 14.446 56.7998 13.7616 57.0849 13.1683C57.3732 12.5717 57.7743 12.1061 58.288 11.7713C58.805 11.4332 59.4083 11.2642 60.0977 11.2642C60.6346 11.2642 61.1185 11.3636 61.5494 11.5625C61.9802 11.7614 62.3332 12.0398 62.6083 12.3977C62.8834 12.7557 63.0541 13.1733 63.1204 13.6506H61.9471C61.8576 13.3026 61.6587 12.9943 61.3505 12.7259C61.0456 12.4541 60.6346 12.3182 60.1175 12.3182C59.6602 12.3182 59.2591 12.4375 58.9144 12.6761C58.573 12.9115 58.3062 13.2446 58.114 13.6754C57.9251 14.103 57.8306 14.6051 57.8306 15.1818C57.8306 15.7718 57.9234 16.2855 58.109 16.723C58.2979 17.1605 58.5631 17.5002 58.9045 17.7422C59.2492 17.9841 59.6535 18.1051 60.1175 18.1051C60.4225 18.1051 60.6992 18.0521 60.9478 17.946C61.1964 17.84 61.4068 17.6875 61.5792 17.4886C61.7515 17.2898 61.8742 17.0511 61.9471 16.7727H63.1204C63.0541 17.2235 62.89 17.6295 62.6282 17.9908C62.3697 18.3487 62.0266 18.6338 61.5991 18.8459C61.1748 19.0547 60.681 19.1591 60.1175 19.1591ZM66.0089 14.4062V19H64.8356V8.81818H66.0089V12.5568H66.1083C66.2873 12.1624 66.5558 11.8492 66.9137 11.6172C67.275 11.3819 67.7556 11.2642 68.3555 11.2642C68.8758 11.2642 69.3316 11.3686 69.7227 11.5774C70.1138 11.7829 70.417 12.0994 70.6325 12.527C70.8512 12.9512 70.9606 13.4915 70.9606 14.1477V19H69.7873V14.2273C69.7873 13.6207 69.6299 13.1518 69.315 12.8203C69.0034 12.4856 68.5709 12.3182 68.0174 12.3182C67.6329 12.3182 67.2882 12.3994 66.9833 12.5618C66.6817 12.7242 66.4431 12.9612 66.2674 13.2727C66.0951 13.5843 66.0089 13.9621 66.0089 14.4062Z" fill="black" fill-opacity="0.2"/>
<path d="M138.298 18.196C137.96 18.196 137.651 18.1136 137.369 17.9489C137.088 17.7812 136.864 17.5568 136.696 17.2756C136.531 16.9943 136.449 16.6847 136.449 16.3466C136.449 16.0057 136.531 15.6946 136.696 15.4134C136.864 15.1321 137.088 14.9077 137.369 14.7401C137.651 14.5724 137.96 14.4886 138.298 14.4886H139.287V12.7756H138.298C137.96 12.7756 137.651 12.6932 137.369 12.5284C137.088 12.3608 136.864 12.1378 136.696 11.8594C136.531 11.5781 136.449 11.267 136.449 10.9261C136.449 10.5852 136.531 10.2756 136.696 9.99716C136.864 9.71591 137.088 9.4929 137.369 9.32812C137.651 9.16051 137.96 9.0767 138.298 9.0767C138.639 9.0767 138.95 9.16051 139.232 9.32812C139.513 9.4929 139.737 9.71591 139.905 9.99716C140.072 10.2756 140.156 10.5852 140.156 10.9261V11.9062H141.869V10.9261C141.869 10.5852 141.952 10.2756 142.116 9.99716C142.284 9.71591 142.507 9.4929 142.786 9.32812C143.067 9.16051 143.378 9.0767 143.719 9.0767C144.06 9.0767 144.369 9.16051 144.648 9.32812C144.929 9.4929 145.152 9.71591 145.317 9.99716C145.484 10.2756 145.568 10.5852 145.568 10.9261C145.568 11.267 145.484 11.5781 145.317 11.8594C145.152 12.1378 144.929 12.3608 144.648 12.5284C144.369 12.6932 144.06 12.7756 143.719 12.7756H142.739V14.4886H143.719C144.06 14.4886 144.369 14.5724 144.648 14.7401C144.929 14.9077 145.152 15.1321 145.317 15.4134C145.484 15.6946 145.568 16.0057 145.568 16.3466C145.568 16.6847 145.484 16.9943 145.317 17.2756C145.152 17.5568 144.929 17.7812 144.648 17.9489C144.369 18.1136 144.06 18.196 143.719 18.196C143.378 18.196 143.067 18.1136 142.786 17.9489C142.507 17.7812 142.284 17.5568 142.116 17.2756C141.952 16.9943 141.869 16.6847 141.869 16.3466V15.358H140.156V16.3466C140.156 16.6847 140.072 16.9943 139.905 17.2756C139.737 17.5568 139.513 17.7812 139.232 17.9489C138.95 18.1136 138.639 18.196 138.298 18.196ZM138.298 17.3267C138.48 17.3267 138.645 17.2827 138.793 17.1946C138.943 17.1065 139.062 16.9886 139.151 16.8409C139.241 16.6903 139.287 16.5256 139.287 16.3466V15.358H138.298C138.119 15.358 137.955 15.4034 137.804 15.4943C137.656 15.5824 137.538 15.7017 137.45 15.8523C137.362 16 137.318 16.1648 137.318 16.3466C137.318 16.5256 137.362 16.6903 137.45 16.8409C137.538 16.9886 137.656 17.1065 137.804 17.1946C137.955 17.2827 138.119 17.3267 138.298 17.3267ZM138.298 11.9062H139.287V10.9261C139.287 10.7443 139.241 10.5795 139.151 10.4318C139.062 10.2841 138.943 10.1662 138.793 10.0781C138.645 9.99006 138.48 9.94602 138.298 9.94602C138.119 9.94602 137.955 9.99006 137.804 10.0781C137.656 10.1662 137.538 10.2841 137.45 10.4318C137.362 10.5795 137.318 10.7443 137.318 10.9261C137.318 11.108 137.362 11.2741 137.45 11.4247C137.538 11.5724 137.656 11.6903 137.804 11.7784C137.955 11.8636 138.119 11.9062 138.298 11.9062ZM142.739 11.9062H143.719C143.901 11.9062 144.065 11.8636 144.213 11.7784C144.361 11.6903 144.479 11.5724 144.567 11.4247C144.655 11.2741 144.699 11.108 144.699 10.9261C144.699 10.7443 144.655 10.5795 144.567 10.4318C144.479 10.2841 144.361 10.1662 144.213 10.0781C144.065 9.99006 143.901 9.94602 143.719 9.94602C143.537 9.94602 143.371 9.99006 143.22 10.0781C143.072 10.1662 142.955 10.2841 142.866 10.4318C142.781 10.5795 142.739 10.7443 142.739 10.9261V11.9062ZM143.719 17.3267C143.901 17.3267 144.065 17.2827 144.213 17.1946C144.361 17.1065 144.479 16.9886 144.567 16.8409C144.655 16.6903 144.699 16.5256 144.699 16.3466C144.699 16.1648 144.655 16 144.567 15.8523C144.479 15.7017 144.361 15.5824 144.213 15.4943C144.065 15.4034 143.901 15.358 143.719 15.358H142.739V16.3466C142.739 16.5256 142.781 16.6903 142.866 16.8409C142.955 16.9886 143.072 17.1065 143.22 17.1946C143.371 17.2827 143.537 17.3267 143.719 17.3267ZM140.156 14.4886H141.869V12.7756H140.156V14.4886ZM151.017 8.86364L148.205 19.3125H147.284L150.097 8.86364H151.017Z" fill="black" fill-opacity="0.2"/>
</svg>
