<svg width="17" height="18" viewBox="0 0 17 18" fill="none" xmlns="http://www.w3.org/2000/svg">
<path d="M3.2983 13.196C2.96023 13.196 2.65057 13.1136 2.36932 12.9489C2.08807 12.7812 1.86364 12.5568 1.69602 12.2756C1.53125 11.9943 1.44886 11.6847 1.44886 11.3466C1.44886 11.0057 1.53125 10.6946 1.69602 10.4134C1.86364 10.1321 2.08807 9.90767 2.36932 9.74006C2.65057 9.57244 2.96023 9.48864 3.2983 9.48864H4.28693V7.77557H3.2983C2.96023 7.77557 2.65057 7.69318 2.36932 7.52841C2.08807 7.3608 1.86364 7.13778 1.69602 6.85938C1.53125 6.57812 1.44886 6.26705 1.44886 5.92614C1.44886 5.58523 1.53125 5.27557 1.69602 4.99716C1.86364 4.71591 2.08807 4.4929 2.36932 4.32812C2.65057 4.16051 2.96023 4.0767 3.2983 4.0767C3.6392 4.0767 3.95028 4.16051 4.23153 4.32812C4.51278 4.4929 4.73722 4.71591 4.90483 4.99716C5.07244 5.27557 5.15625 5.58523 5.15625 5.92614V6.90625H6.86932V5.92614C6.86932 5.58523 6.9517 5.27557 7.11648 4.99716C7.28409 4.71591 7.5071 4.4929 7.78551 4.32812C8.06676 4.16051 8.37784 4.0767 8.71875 4.0767C9.05966 4.0767 9.36932 4.16051 9.64773 4.32812C9.92898 4.4929 10.152 4.71591 10.3168 4.99716C10.4844 5.27557 10.5682 5.58523 10.5682 5.92614C10.5682 6.26705 10.4844 6.57812 10.3168 6.85938C10.152 7.13778 9.92898 7.3608 9.64773 7.52841C9.36932 7.69318 9.05966 7.77557 8.71875 7.77557H7.73864V9.48864H8.71875C9.05966 9.48864 9.36932 9.57244 9.64773 9.74006C9.92898 9.90767 10.152 10.1321 10.3168 10.4134C10.4844 10.6946 10.5682 11.0057 10.5682 11.3466C10.5682 11.6847 10.4844 11.9943 10.3168 12.2756C10.152 12.5568 9.92898 12.7812 9.64773 12.9489C9.36932 13.1136 9.05966 13.196 8.71875 13.196C8.37784 13.196 8.06676 13.1136 7.78551 12.9489C7.5071 12.7812 7.28409 12.5568 7.11648 12.2756C6.9517 11.9943 6.86932 11.6847 6.86932 11.3466V10.358H5.15625V11.3466C5.15625 11.6847 5.07244 11.9943 4.90483 12.2756C4.73722 12.5568 4.51278 12.7812 4.23153 12.9489C3.95028 13.1136 3.6392 13.196 3.2983 13.196ZM3.2983 12.3267C3.48011 12.3267 3.64489 12.2827 3.79261 12.1946C3.94318 12.1065 4.0625 11.9886 4.15057 11.8409C4.24148 11.6903 4.28693 11.5256 4.28693 11.3466V10.358H3.2983C3.11932 10.358 2.95455 10.4034 2.80398 10.4943C2.65625 10.5824 2.53835 10.7017 2.45028 10.8523C2.36222 11 2.31818 11.1648 2.31818 11.3466C2.31818 11.5256 2.36222 11.6903 2.45028 11.8409C2.53835 11.9886 2.65625 12.1065 2.80398 12.1946C2.95455 12.2827 3.11932 12.3267 3.2983 12.3267ZM3.2983 6.90625H4.28693V5.92614C4.28693 5.74432 4.24148 5.57955 4.15057 5.43182C4.0625 5.28409 3.94318 5.16619 3.79261 5.07812C3.64489 4.99006 3.48011 4.94602 3.2983 4.94602C3.11932 4.94602 2.95455 4.99006 2.80398 5.07812C2.65625 5.16619 2.53835 5.28409 2.45028 5.43182C2.36222 5.57955 2.31818 5.74432 2.31818 5.92614C2.31818 6.10795 2.36222 6.27415 2.45028 6.42472C2.53835 6.57244 2.65625 6.69034 2.80398 6.77841C2.95455 6.86364 3.11932 6.90625 3.2983 6.90625ZM7.73864 6.90625H8.71875C8.90057 6.90625 9.06534 6.86364 9.21307 6.77841C9.3608 6.69034 9.47869 6.57244 9.56676 6.42472C9.65483 6.27415 9.69886 6.10795 9.69886 5.92614C9.69886 5.74432 9.65483 5.57955 9.56676 5.43182C9.47869 5.28409 9.3608 5.16619 9.21307 5.07812C9.06534 4.99006 8.90057 4.94602 8.71875 4.94602C8.53693 4.94602 8.37074 4.99006 8.22017 5.07812C8.07244 5.16619 7.95455 5.28409 7.86648 5.43182C7.78125 5.57955 7.73864 5.74432 7.73864 5.92614V6.90625ZM8.71875 12.3267C8.90057 12.3267 9.06534 12.2827 9.21307 12.1946C9.3608 12.1065 9.47869 11.9886 9.56676 11.8409C9.65483 11.6903 9.69886 11.5256 9.69886 11.3466C9.69886 11.1648 9.65483 11 9.56676 10.8523C9.47869 10.7017 9.3608 10.5824 9.21307 10.4943C9.06534 10.4034 8.90057 10.358 8.71875 10.358H7.73864V11.3466C7.73864 11.5256 7.78125 11.6903 7.86648 11.8409C7.95455 11.9886 8.07244 12.1065 8.22017 12.1946C8.37074 12.2827 8.53693 12.3267 8.71875 12.3267ZM5.15625 9.48864H6.86932V7.77557H5.15625V9.48864ZM16.0174 3.86364L13.2049 14.3125H12.2844L15.0969 3.86364H16.0174Z" fill="black" fill-opacity="0.2"/>
</svg>
