<svg width="20" height="20" viewBox="0 0 20 20" fill="none" xmlns="http://www.w3.org/2000/svg">
<path d="M14.6875 10C14.6875 12.5888 12.5888 14.6875 10 14.6875C7.41119 14.6875 5.3125 12.5888 5.3125 10C5.3125 7.41119 7.41119 5.3125 10 5.3125C12.5888 5.3125 14.6875 7.41119 14.6875 10Z" fill="black" fill-opacity="0.1"/>
<path fill-rule="evenodd" clip-rule="evenodd" d="M10 4.6875C10 4.6875 11.0804 4.6875 12.0681 5.10524C12.0681 5.10524 13.0215 5.50853 13.7565 6.2435C13.7565 6.2435 14.4915 6.97846 14.8948 7.93194C14.8948 7.93194 15.3125 8.91959 15.3125 10C15.3125 10 15.3125 11.0804 14.8948 12.0681C14.8948 12.0681 14.4915 13.0215 13.7565 13.7565C13.7565 13.7565 13.0215 14.4915 12.0681 14.8948C12.0681 14.8948 11.0804 15.3125 10 15.3125C10 15.3125 8.91959 15.3125 7.93194 14.8948C7.93194 14.8948 6.97846 14.4915 6.2435 13.7565C6.2435 13.7565 5.50853 13.0215 5.10524 12.0681C5.10524 12.0681 4.6875 11.0804 4.6875 10C4.6875 10 4.6875 8.91959 5.10524 7.93194C5.10524 7.93194 5.50853 6.97846 6.2435 6.2435C6.2435 6.2435 6.97846 5.50853 7.93194 5.10524C7.93194 5.10524 8.91959 4.6875 10 4.6875ZM10 5.9375C10 5.9375 8.31726 5.9375 7.12738 7.12738C7.12738 7.12738 5.9375 8.31726 5.9375 10C5.9375 10 5.9375 11.6827 7.12738 12.8726C7.12738 12.8726 8.31726 14.0625 10 14.0625C10 14.0625 11.6827 14.0625 12.8726 12.8726C12.8726 12.8726 14.0625 11.6827 14.0625 10C14.0625 10 14.0625 8.31726 12.8726 7.12738C12.8726 7.12738 11.6827 5.9375 10 5.9375Z" fill="#1C1C1C"/>
<path d="M10.625 2.8125V1.25C10.625 0.904822 10.3452 0.625 10 0.625C9.65482 0.625 9.375 0.904822 9.375 1.25V2.8125C9.375 3.15768 9.65482 3.4375 10 3.4375C10.3452 3.4375 10.625 3.15768 10.625 2.8125Z" fill="#1C1C1C"/>
<path d="M4.25444 3.37056C4.13723 3.25335 3.97826 3.1875 3.8125 3.1875C3.64674 3.1875 3.48777 3.25335 3.37056 3.37056C3.25335 3.48777 3.1875 3.64674 3.1875 3.8125C3.1875 3.97826 3.25335 4.13723 3.37056 4.25444L4.47212 5.356C4.58933 5.47321 4.7483 5.53906 4.91406 5.53906C5.07982 5.53906 5.23879 5.47321 5.356 5.356C5.47321 5.23879 5.53906 5.07982 5.53906 4.91406C5.53906 4.7483 5.47321 4.58933 5.356 4.47212L4.25444 3.37056Z" fill="#1C1C1C"/>
<path d="M2.8125 9.375H1.25C0.904822 9.375 0.625 9.65482 0.625 10C0.625 10.3452 0.904822 10.625 1.25 10.625H2.8125C3.15768 10.625 3.4375 10.3452 3.4375 10C3.4375 9.65482 3.15768 9.375 2.8125 9.375Z" fill="#1C1C1C"/>
<path d="M3.37056 15.7456C3.25335 15.8628 3.1875 16.0217 3.1875 16.1875C3.1875 16.1983 3.18778 16.2091 3.18834 16.2198C3.19634 16.3742 3.26126 16.5201 3.37056 16.6294C3.48777 16.7467 3.64674 16.8125 3.8125 16.8125C3.97826 16.8125 4.13723 16.7467 4.25444 16.6294L5.356 15.5279C5.47321 15.4107 5.53906 15.2517 5.53906 15.0859C5.53906 14.9202 5.47321 14.7612 5.356 14.644C5.23879 14.5268 5.07982 14.4609 4.91406 14.4609C4.90328 14.4609 4.89249 14.4612 4.88172 14.4618C4.72735 14.4698 4.58142 14.5347 4.47212 14.644L3.37056 15.7456Z" fill="#1C1C1C"/>
<path d="M9.375 17.1875V18.75C9.375 19.0952 9.65482 19.375 10 19.375C10.3452 19.375 10.625 19.0952 10.625 18.75V17.1875C10.625 16.8423 10.3452 16.5625 10 16.5625C9.65482 16.5625 9.375 16.8423 9.375 17.1875Z" fill="#1C1C1C"/>
<path d="M14.6441 15.528L15.7456 16.6294C15.8628 16.7467 16.0217 16.8125 16.1875 16.8125C16.3533 16.8125 16.5122 16.7467 16.6294 16.6294C16.7467 16.5122 16.8125 16.3533 16.8125 16.1875C16.8125 16.0217 16.7467 15.8628 16.6294 15.7456L15.528 14.6441C15.4107 14.5268 15.2517 14.4609 15.0859 14.4609C14.9202 14.4609 14.7612 14.5268 14.644 14.644C14.5268 14.7612 14.4609 14.9202 14.4609 15.0859C14.4609 15.2517 14.5268 15.4107 14.6441 15.528Z" fill="#1C1C1C"/>
<path d="M17.1875 10.625H18.75C19.0952 10.625 19.375 10.3452 19.375 10C19.375 9.65482 19.0952 9.375 18.75 9.375H17.1875C16.8423 9.375 16.5625 9.65482 16.5625 10C16.5625 10.3452 16.8423 10.625 17.1875 10.625Z" fill="#1C1C1C"/>
<path d="M16.6294 4.25444C16.7467 4.13723 16.8125 3.97826 16.8125 3.8125C16.8125 3.64674 16.7467 3.48777 16.6294 3.37056C16.5122 3.25335 16.3533 3.1875 16.1875 3.1875C16.0217 3.1875 15.8628 3.25335 15.7456 3.37056L14.6441 4.47205C14.5268 4.58933 14.4609 4.7483 14.4609 4.91406C14.4609 5.07982 14.5268 5.23879 14.644 5.356C14.7612 5.47321 14.9202 5.53906 15.0859 5.53906C15.2517 5.53906 15.4107 5.47321 15.5279 5.356L16.6294 4.25444Z" fill="#1C1C1C"/>
</svg>
