<svg width="20" height="20" viewBox="0 0 20 20" fill="none" xmlns="http://www.w3.org/2000/svg">
<path d="M6.25 16.875H3.75C3.58429 16.875 3.42529 16.8092 3.30811 16.692C3.19092 16.5747 3.125 16.4158 3.125 16.25V3.75C3.125 3.58421 3.19092 3.42529 3.30811 3.30803C3.42529 3.19084 3.58429 3.125 3.75 3.125H6.25V16.875Z" fill="black" fill-opacity="0.1"/>
<path d="M8.75 9.375H13.75C14.0952 9.375 14.375 9.09518 14.375 8.75C14.375 8.40482 14.0952 8.125 13.75 8.125H8.75C8.40482 8.125 8.125 8.40482 8.125 8.75C8.125 9.09518 8.40482 9.375 8.75 9.375Z" fill="#1C1C1C"/>
<path d="M8.75 11.875H13.75C14.0952 11.875 14.375 11.5952 14.375 11.25C14.375 10.9048 14.0952 10.625 13.75 10.625H8.75C8.40482 10.625 8.125 10.9048 8.125 11.25C8.125 11.5952 8.40482 11.875 8.75 11.875Z" fill="#1C1C1C"/>
<path fill-rule="evenodd" clip-rule="evenodd" d="M2.5 3.75C2.5 3.75 2.5 3.23223 2.86612 2.86612C2.86612 2.86612 3.23223 2.5 3.75 2.5H16.25C16.25 2.5 16.7678 2.5 17.1339 2.86612C17.1339 2.86612 17.5 3.23223 17.5 3.75V16.25C17.5 16.25 17.5 16.7678 17.1339 17.1339C17.1339 17.1339 16.7678 17.5 16.25 17.5H3.75C3.75 17.5 3.23223 17.5 2.86612 17.1339C2.86612 17.1339 2.5 16.7678 2.5 16.25V3.75ZM3.75 3.75V16.25H16.25V3.75H3.75Z" fill="#1C1C1C"/>
<path d="M5.625 3.125V16.875C5.625 17.2202 5.90482 17.5 6.25 17.5C6.59518 17.5 6.875 17.2202 6.875 16.875V3.125C6.875 2.77982 6.59518 2.5 6.25 2.5C5.90482 2.5 5.625 2.77982 5.625 3.125Z" fill="#1C1C1C"/>
</svg>
