<svg width="20" height="20" viewBox="0 0 20 20" fill="none" xmlns="http://www.w3.org/2000/svg">
<path d="M2.62498 11.375C2.53976 10.9217 2.49788 10.4613 2.50002 10C2.49902 8.44887 2.97945 6.93573 3.87506 5.66933C4.77068 4.40285 6.03723 3.44566 7.50002 2.92969V8.55469L2.62498 11.375Z" fill="black" fill-opacity="0.1"/>
<path d="M10.625 10V2.5C10.625 2.15482 10.3452 1.875 10 1.875C9.65482 1.875 9.375 2.15482 9.375 2.5V10C9.375 10.3452 9.65482 10.625 10 10.625C10.3452 10.625 10.625 10.3452 10.625 10Z" fill="#1C1C1C"/>
<path d="M3.19567 13.2085L3.1952 13.2088C3.05167 13.2917 2.94695 13.4282 2.90408 13.5884C2.88996 13.6411 2.88281 13.6954 2.88281 13.75C2.88281 13.7566 2.88292 13.7632 2.88313 13.7698C2.8864 13.8728 2.91507 13.9734 2.96661 14.0626C3.07827 14.2559 3.28457 14.375 3.50781 14.375C3.51752 14.375 3.52723 14.3748 3.53693 14.3743C3.63671 14.3697 3.73392 14.3412 3.82042 14.2912L3.82089 14.2909L16.8048 6.7912C16.9981 6.67954 17.1172 6.47325 17.1172 6.25C17.1172 6.24029 17.117 6.23058 17.1165 6.22089C17.1119 6.1211 17.0834 6.02389 17.0334 5.93739C16.9505 5.79386 16.814 5.68913 16.6538 5.64626C16.6011 5.63215 16.5468 5.625 16.4922 5.625C16.4856 5.625 16.479 5.6251 16.4724 5.62531C16.3694 5.62858 16.2688 5.65726 16.1796 5.7088L3.19567 13.2085Z" fill="#1C1C1C"/>
<path fill-rule="evenodd" clip-rule="evenodd" d="M7.81299 9.09568L2.93799 11.916C2.79451 11.999 2.62394 12.0216 2.46379 11.9788C2.30364 11.9361 2.16703 11.8315 2.08403 11.688C2.04862 11.6268 2.02386 11.56 2.01079 11.4905C2.01079 11.4905 1.87156 10.7503 1.87502 9.99712C1.87502 9.99712 1.87337 7.41738 3.36478 5.30843C3.36478 5.30843 4.85619 3.19949 7.29212 2.34028C7.44844 2.28514 7.62026 2.29436 7.76978 2.36591C7.91931 2.43745 8.03429 2.56547 8.08943 2.72179C8.11298 2.78857 8.12502 2.85887 8.12502 2.92969V8.55469C8.12502 8.77778 8.0061 8.98396 7.81299 9.09568ZM3.1329 10.3591L6.87502 8.19421V3.87232C6.87502 3.87232 5.38128 4.6219 4.38537 6.03017C4.38537 6.03017 3.12362 7.81436 3.12501 10.0029C3.12501 10.0029 3.12419 10.1814 3.1329 10.3591Z" fill="#1C1C1C"/>
<path d="M6.59931 15.9755C5.00112 15.0662 4.07024 13.4805 4.07024 13.4805C3.98633 13.3375 3.84906 13.2338 3.68864 13.192C3.63725 13.1786 3.58436 13.1719 3.53125 13.1719C3.52318 13.1719 3.5151 13.172 3.50703 13.1723C3.40407 13.1763 3.3037 13.2057 3.21484 13.2579C3.02367 13.3701 2.90625 13.5752 2.90625 13.7969L2.90625 13.7987C2.90657 13.9093 2.93625 14.0179 2.99226 14.1133C4.09239 15.9873 5.98116 17.062 5.98116 17.062C7.86993 18.1366 10.043 18.1249 10.043 18.1249C12.2161 18.1132 14.0931 17.0182 14.0931 17.0182C15.9702 15.9232 17.05 14.0374 17.05 14.0374C18.1299 12.1516 18.1241 9.97854 18.1241 9.97854C18.1184 7.80546 17.0286 5.92538 17.0286 5.92538C15.9388 4.04531 14.056 2.96028 14.056 2.96028C12.1732 1.87525 10.0001 1.875 10.0001 1.875C9.96188 1.875 9.92383 1.87849 9.88634 1.88542C9.59005 1.94022 9.37503 2.19861 9.375 2.49993C9.375 2.50996 9.37524 2.51998 9.37572 2.52995C9.38316 2.68515 9.44815 2.83201 9.55801 2.94189C9.6752 3.05911 9.83417 3.12498 9.99993 3.125H10.0002C11.8388 3.12528 13.4319 4.04331 13.4319 4.04331C15.025 4.96141 15.9471 6.55225 15.9471 6.55225C16.8693 8.14308 16.8741 9.98184 16.8741 9.98184C16.879 11.8206 15.9653 13.4163 15.9653 13.4163C15.0516 15.012 13.4633 15.9385 13.4633 15.9385C11.875 16.865 10.0362 16.8749 10.0362 16.8749C8.1975 16.8848 6.59931 15.9755 6.59931 15.9755Z" fill="#1C1C1C"/>
</svg>
