<svg width="20" height="20" viewBox="0 0 20 20" fill="none" xmlns="http://www.w3.org/2000/svg">
<path d="M2.5 6.25H17.5V4.375C17.5 4.20929 17.4341 4.05029 17.3169 3.93311C17.1997 3.81592 17.0408 3.75 16.875 3.75H3.125C2.95924 3.75 2.80026 3.81592 2.68306 3.93311C2.56585 4.05029 2.5 4.20929 2.5 4.375V6.25Z" fill="black" fill-opacity="0.1"/>
<path fill-rule="evenodd" clip-rule="evenodd" d="M1.875 4.375C1.875 4.375 1.875 3.85723 2.24112 3.49112C2.24112 3.49112 2.60723 3.125 3.125 3.125H16.875C16.875 3.125 17.3928 3.125 17.7589 3.49112C17.7589 3.49112 18.125 3.85723 18.125 4.375V15.625C18.125 15.625 18.125 16.1428 17.7589 16.5089C17.7589 16.5089 17.3928 16.875 16.875 16.875H3.125C3.125 16.875 2.60723 16.875 2.24112 16.5089C2.24112 16.5089 1.875 16.1428 1.875 15.625V4.375ZM3.125 4.375V15.625H16.875V4.375H3.125Z" fill="#1C1C1C"/>
<path d="M2.5 6.875H17.5C17.8452 6.875 18.125 6.59518 18.125 6.25C18.125 5.90482 17.8452 5.625 17.5 5.625H2.5C2.15482 5.625 1.875 5.90482 1.875 6.25C1.875 6.59518 2.15482 6.875 2.5 6.875Z" fill="#1C1C1C"/>
<path d="M8.23223 10.5178C7.5 9.78553 7.5 8.75 7.5 8.75C7.5 8.40482 7.22018 8.125 6.875 8.125C6.52982 8.125 6.25 8.40482 6.25 8.75C6.25 10.3033 7.34835 11.4017 7.34835 11.4017C8.4467 12.5 10 12.5 10 12.5C11.5533 12.5 12.6517 11.4017 12.6517 11.4017C13.75 10.3033 13.75 8.75 13.75 8.75C13.75 8.40482 13.4702 8.125 13.125 8.125C12.7798 8.125 12.5 8.40482 12.5 8.75C12.5 9.78553 11.7678 10.5178 11.7678 10.5178C11.0355 11.25 10 11.25 10 11.25C8.96447 11.25 8.23223 10.5178 8.23223 10.5178Z" fill="#1C1C1C"/>
</svg>
