<svg width="18" height="20" viewBox="0 0 18 20" fill="none" xmlns="http://www.w3.org/2000/svg">
<path d="M9.23349 0.536972C9.23349 0.24041 8.99954 0 8.71094 0C8.42235 0 8.18839 0.24041 8.18839 0.536972V3.62899C8.18839 3.78584 8.00385 3.86439 7.89592 3.75348L6.35801 2.17312C6.15394 1.96342 5.82308 1.96342 5.61901 2.17312C5.41495 2.38282 5.41495 2.72281 5.61901 2.93251L7.88731 5.26342C8.08009 5.46152 8.18839 5.73021 8.18839 6.01036V8.76202C8.18839 8.89755 8.04562 8.98226 7.9314 8.91449L5.60499 7.53427C5.36888 7.39419 5.1966 7.16346 5.12604 6.89285L4.29578 3.70877C4.22109 3.42231 3.93456 3.25231 3.65579 3.32907C3.37703 3.40583 3.2116 3.70027 3.2863 3.98672L3.84921 6.14554C3.88872 6.29705 3.73025 6.422 3.59806 6.34358L0.999634 4.80197C0.749703 4.65369 0.430118 4.74168 0.28582 4.99851C0.141522 5.25534 0.227155 5.58375 0.477086 5.73203L3.0784 7.27536C3.21059 7.35378 3.18452 7.55729 3.03708 7.59788L0.931689 8.17759C0.652927 8.25435 0.487498 8.54879 0.562192 8.83525C0.636886 9.1217 0.923418 9.2917 1.20218 9.21494L4.3053 8.36051C4.56864 8.288 4.84923 8.32596 5.08534 8.46604L7.41053 9.84555C7.52474 9.91331 7.52474 10.0827 7.41053 10.1505L5.08077 11.5327C4.84466 11.6728 4.56407 11.7107 4.30073 11.6382L1.20218 10.7851C0.923419 10.7083 0.636886 10.8783 0.562192 11.1648C0.487498 11.4512 0.652928 11.7457 0.93169 11.8224L3.03251 12.4009C3.17995 12.4415 3.20602 12.645 3.07383 12.7234L0.475412 14.265C0.225481 14.4133 0.139848 14.7417 0.284146 14.9985C0.428443 15.2553 0.748029 15.3433 0.99796 15.1951L3.59928 13.6517C3.73147 13.5733 3.88994 13.6983 3.85044 13.8498L3.2863 16.0133C3.2116 16.2997 3.37703 16.5942 3.65579 16.6709C3.93455 16.7477 4.22109 16.5777 4.29578 16.2912L5.12726 13.1025C5.19782 12.8318 5.37011 12.6011 5.60622 12.461L7.9314 11.0815C8.04562 11.0138 8.18839 11.0985 8.18839 11.234V13.9984C8.18839 14.2786 8.08009 14.5473 7.88731 14.7454L5.61901 17.0763C5.41495 17.286 5.41495 17.626 5.61901 17.8357C5.82308 18.0454 6.15394 18.0454 6.35801 17.8357L7.89592 16.2553C8.00385 16.1444 8.18839 16.223 8.18839 16.3798V19.463C8.18839 19.7596 8.42235 20 8.71094 20C8.99954 20 9.23349 19.7596 9.23349 19.463V16.3764C9.23349 16.2195 9.41803 16.141 9.52596 16.2519L11.0672 17.8357C11.2713 18.0454 11.6021 18.0454 11.8062 17.8357C12.0103 17.626 12.0103 17.286 11.8062 17.0763L9.53457 14.7419C9.34179 14.5438 9.23349 14.2752 9.23349 13.995V11.232C9.23349 11.0965 9.37626 11.0118 9.49048 11.0796L11.8116 12.4566C12.0477 12.5967 12.22 12.8275 12.2906 13.0981L13.122 16.2868C13.1967 16.5733 13.4833 16.7433 13.762 16.6665C14.0408 16.5898 14.2062 16.2953 14.1315 16.0089L13.5674 13.8454C13.5279 13.6939 13.6864 13.5689 13.8185 13.6473L16.4273 15.1951C16.6772 15.3433 16.9968 15.2553 17.1411 14.9985C17.2854 14.7417 17.1997 14.4133 16.9498 14.265L14.344 12.719C14.2118 12.6406 14.2379 12.4371 14.3853 12.3965L16.4861 11.818C16.7649 11.7413 16.9303 11.4468 16.8556 11.1604C16.7809 10.8739 16.4944 10.7039 16.2156 10.7807L13.1171 11.6338C12.8537 11.7063 12.5731 11.6684 12.337 11.5283L10.0147 10.1505C9.90048 10.0827 9.90048 9.91331 10.0147 9.84555L12.3325 8.47044C12.5686 8.33036 12.8492 8.2924 13.1125 8.36491L16.2156 9.21935C16.4944 9.2961 16.7809 9.12611 16.8556 8.83965C16.9303 8.55319 16.7649 8.25875 16.4861 8.182L14.3807 7.60228C14.2333 7.56169 14.2072 7.35818 14.3394 7.27976L16.9481 5.73203C17.1981 5.58375 17.2837 5.25534 17.1394 4.99851C16.9951 4.74168 16.6755 4.65369 16.4256 4.80197L13.8198 6.34797C13.6876 6.4264 13.5291 6.30144 13.5686 6.14994L14.1315 3.99113C14.2062 3.70467 14.0408 3.41023 13.762 3.33347C13.4833 3.25672 13.1967 3.42671 13.122 3.71317L12.2918 6.89724C12.2212 7.16786 12.0489 7.39858 11.8128 7.53866L9.49048 8.91648C9.37626 8.98424 9.23349 8.89954 9.23349 8.76401V6.0138C9.23349 5.73364 9.34179 5.46496 9.53458 5.26686L11.8062 2.93251C12.0103 2.72281 12.0103 2.38282 11.8062 2.17312C11.6021 1.96342 11.2713 1.96342 11.0672 2.17312L9.52597 3.75692C9.41804 3.86783 9.23349 3.78928 9.23349 3.63243V0.536972Z" fill="#95A4FC"/>
</svg>
