<svg width="20" height="20" viewBox="0 0 20 20" fill="none" xmlns="http://www.w3.org/2000/svg">
<path d="M12.8047 6.25781C13.0189 6.85691 13.1274 7.48874 13.125 8.12499C13.125 9.61684 12.5324 11.0476 11.4775 12.1025C10.4226 13.1574 8.99184 13.75 7.49999 13.75H7.19531C7.58311 14.8469 8.30154 15.7966 9.25159 16.4682C10.2016 17.1398 11.3365 17.5003 12.5 17.5H17.6562C17.7806 17.5 17.8998 17.4506 17.9877 17.3627C18.0756 17.2748 18.125 17.1556 18.125 17.0312V11.875C18.127 10.4353 17.5761 9.04973 16.5861 8.00443C15.596 6.95914 14.2424 6.3339 12.8047 6.25781Z" fill="black" fill-opacity="0.1"/>
<path fill-rule="evenodd" clip-rule="evenodd" d="M9.89177 2.35075C9.89177 2.35075 8.7432 1.875 7.5 1.875H7.49955C7.49955 1.875 6.25659 1.87509 5.10823 2.35075C5.10823 2.35075 3.95966 2.82651 3.08058 3.70558C3.08058 3.70558 2.20151 4.58466 1.72575 5.73323C1.72575 5.73323 1.25 6.8818 1.25 8.125V13.2812C1.25 13.2812 1.25 13.7343 1.57035 14.0546C1.57035 14.0546 1.89071 14.375 2.34375 14.375H7.5C7.5 14.375 8.7432 14.375 9.89177 13.8992C9.89177 13.8992 11.0403 13.4235 11.9194 12.5444C11.9194 12.5444 12.7985 11.6653 13.2742 10.5168C13.2742 10.5168 13.75 9.3682 13.75 8.125C13.75 8.125 13.75 6.8818 13.2742 5.73323C13.2742 5.73323 12.7985 4.58466 11.9194 3.70558C11.9194 3.70558 11.0403 2.82651 9.89177 2.35075ZM12.5 8.125C12.5 8.125 12.5 7.13044 12.1194 6.21158C12.1194 6.21158 11.7388 5.29273 11.0355 4.58947C11.0355 4.58947 10.3323 3.8862 9.41342 3.5056C9.41342 3.5056 8.49475 3.12508 7.50041 3.125L7.5 3.125C7.5 3.125 6.50544 3.125 5.58658 3.5056C5.58658 3.5056 4.66773 3.8862 3.96447 4.58947C3.96447 4.58947 3.2612 5.29273 2.8806 6.21158C2.8806 6.21158 2.5 7.13044 2.5 8.125L2.5 13.125H7.5C7.5 13.125 8.49456 13.125 9.41342 12.7444C9.41342 12.7444 10.3323 12.3638 11.0355 11.6605C11.0355 11.6605 11.7388 10.9573 12.1194 10.0384C12.1194 10.0384 12.5 9.11956 12.5 8.125Z" fill="#1C1C1C"/>
<path d="M12.8377 5.63369C12.8267 5.6331 12.8157 5.63281 12.8047 5.63281C12.7776 5.63281 12.7505 5.63458 12.7236 5.6381C12.4248 5.67719 12.1965 5.92389 12.1806 6.22478C12.18 6.23578 12.1797 6.2468 12.1797 6.25781C12.1797 6.2669 12.1799 6.276 12.1803 6.28508C12.1866 6.42989 12.2431 6.56801 12.34 6.67578C12.4509 6.79902 12.6061 6.87318 12.7717 6.88194C14.7618 6.98727 16.1323 8.43422 16.1323 8.43422C17.5028 9.88117 17.5 11.8741 17.5 11.8741V16.875H12.5C10.9103 16.8754 9.61237 15.9578 9.61237 15.9578C8.31461 15.0404 7.78473 13.5421 7.78473 13.5421L7.78457 13.5417C7.69628 13.292 7.46018 13.125 7.19531 13.125L7.18765 13.125C7.11926 13.1259 7.05147 13.1379 6.98698 13.1607C6.8307 13.216 6.70277 13.3311 6.63133 13.4806C6.59116 13.5648 6.57031 13.6568 6.57031 13.75L6.57046 13.7636C6.5719 13.83 6.58392 13.8957 6.60606 13.9583C7.26836 15.8316 8.8908 16.9785 8.8908 16.9785C10.5132 18.1255 12.5 18.125 12.5 18.125H17.6562C18.1093 18.125 18.4296 17.8046 18.4296 17.8046C18.75 17.4843 18.75 17.0312 18.75 17.0312V11.8759C18.7517 10.6759 18.3083 9.56089 18.3083 9.56089C17.865 8.44584 17.0398 7.57464 17.0398 7.57464C16.2147 6.70344 15.1253 6.20027 15.1253 6.20027C14.0362 5.69719 12.8382 5.63371 12.8382 5.63371L12.8377 5.63369Z" fill="#1C1C1C"/>
</svg>
